<?xml version="1.0" encoding="UTF-8"?>
<svg id="Layer_1" data-name="Layer 1" xmlns="http://www.w3.org/2000/svg" viewBox="0 0 195.81 144.54">
  <defs>
    <style>
      .cls-1 {
        fill: #fb9a59;
      }

      .cls-1, .cls-2, .cls-3, .cls-4, .cls-5, .cls-6, .cls-7, .cls-8, .cls-9, .cls-10, .cls-11, .cls-12, .cls-13, .cls-14, .cls-15, .cls-16, .cls-17, .cls-18 {
        stroke-width: 0px;
      }

      .cls-2 {
        fill: #87cad9;
      }

      .cls-3 {
        fill: #fdb36c;
      }

      .cls-4 {
        fill: #46add7;
      }

      .cls-5 {
        fill: #fcf8de;
      }

      .cls-6 {
        fill: #fcf6d8;
      }

      .cls-7 {
        fill: #8accdb;
      }

      .cls-8 {
        fill: #fb9657;
      }

      .cls-9 {
        fill: #1c405f;
      }

      .cls-10 {
        fill: #e3f2e7;
      }

      .cls-11 {
        fill: #2d5f7f;
      }

      .cls-12 {
        fill: #baf2f1;
      }

      .cls-13 {
        fill: #33aadb;
      }

      .cls-14 {
        fill: #5088a3;
      }

      .cls-15 {
        fill: #9dedf4;
      }

      .cls-16 {
        fill: #2f6182;
      }

      .cls-17 {
        fill: #fa9058;
      }

      .cls-18 {
        fill: #224d6f;
      }
    </style>
  </defs>
  <path class="cls-9" d="M195.46,107.75c-.01-18.21,0-36.43,0-54.64,0-.11-.01-.21-.04-.32,0-.24,0-.48,0-.72-1.91-6.98-6.66-11.09-13.46-12.87-4.43-1.16-8.96-1.93-13.43-2.96-4.35-1-8.25-2.81-11.01-6.59-.76-.6-1.54-1.21-2.37-1.83-1.13-.84-2.41-1.41-3.75-1.88-.35-.07-.7-.16-1.05-.29-.17-.06-.34-.1-.51-.15-.32,0-.65,0-.98-.04-2.59-.31-4.95-1.05-7.05-2.2-.07-.03-.14-.04-.21-.07-2.37-1.04-4.16-2.55-5.39-4.38-4.92-5.73-10.45-10.77-17.25-14.08-2.5-.89-4.89-2.19-7.28-3.3C105.75-.21,99.64-.03,93.34.05c-12.95,1.13-24.05,6.6-32.63,17.26-3.15,3.91-6.27,5.84-11.17,5.05-3.56-.58-6,.99-7.85,4.12-2.92,4.97-7.33,8.16-12.97,9.56-2.44.61-4.91,1.08-7.34,1.72-4.02,1.07-8.19,1.81-11.97,3.45C3.74,43.67.85,48.47.31,54.64c.03.09.07.17.08.26,0,.03-.07.07-.11.1l-.24,1.12c.08.12.08.23,0,.34.07.49.15.98.22,1.47.13,2.27.33,4.54.37,6.81.02,1.17-.24,2.35-.38,3.53,0,.73,0,1.45,0,2.18,0,.75,0,1.49,0,2.24v6.22s-.02,3.36-.02,3.36c0,5.63,0,11.26,0,16.89,0,1.49,0,2.97,0,4.46-.08.12-.16.24-.24.36,0,.36,0,.72,0,1.08.14,4.79,1.27,9.28,4.04,13.28,4.15,5.05,9.73,7.25,15.96,8.63,18.54,4.13,37.01,8.52,55.51,12.81,6.09,1.41,12.17,2.82,18.25,4.24.51.14,1.02.28,1.53.42.25.03.5.06.74.1,12.66-.65,24.57-4.91,36.8-7.64,16.24-3.63,32.4-7.67,48.59-11.53,7.94-2.45,12.34-8.09,14.37-15.88-.12-.58-.35-1.16-.35-1.75ZM92.65,87.83c-.09,3.94-.17,7.88-.26,11.82-.02,5.25-.03,10.49-.05,15.74,0,4.41-.05,8.83.02,13.24.03,1.6-.51,2.11-2.06,1.74-5.7-1.39-11.4-2.76-17.1-4.09-5.65-1.32-11.32-2.55-16.97-3.88-6.6-1.54-13.18-3.21-19.79-4.7-5.47-1.23-10.96-2.41-16.48-3.39-3.94-.7-7.06-3.95-7.14-8.03-.07-3.22-.01-6.44-.01-9.67.02-5.19.05-10.38.07-15.57-.04-4.41-.11-8.82-.1-13.23,0-1.27.89-1.93,2.08-1.84,1.58.12,3.17.35,4.71.71,19.49,4.61,38.98,9.26,58.47,13.89,3.87.92,7.76,1.82,11.62,2.77,1.86.46,3.01,1.58,3,3.63v.86ZM88.95,70.22c-11.57-2.93-23.23-5.49-34.85-8.22-.89-.21-1.75-.53-2.63-.8-5.37-1.23-10.73-2.46-16.1-3.69-6.27-1.44-12.53-2.88-18.8-4.33-.59-.14-1.18-.3-1.87-.9,1.64-.44,3.29-.9,4.94-1.32,4.87-1.25,9.75-2.42,14.6-3.74,5.99-1.64,10.89-5,14.64-9.93,1.22-1.61,2.56-2.55,4.63-2.21.48.08.99-.07,1.47.02,4.55.84,7.37-1.53,10.09-4.82,3.06-3.71,6.34-7.34,10.01-10.42,5-4.2,10.98-6.61,17.51-7.47,12-2.1,22.03,2.04,30.72,9.96,3.32,3.03,6.27,6.47,9.39,9.72,2.61,2.52,5.83,2.94,9.21,2.56,2.69-.31,4.52.56,6.16,2.84,4.39,6.11,10.67,9.33,17.89,10.95,5.24,1.18,10.46,2.46,15.75,4.12-4.36.94-8.71,1.87-13.07,2.81-2.58.72-5.14,1.5-7.74,2.14-17.96,4.37-35.97,8.58-53.88,13.15-6.19,1.58-12.01,1.14-18.08-.4ZM183.6,106.49c-.07,3.29-2.34,5.96-5.74,6.77-10.25,2.45-20.51,4.85-30.77,7.27-13.24,3.12-26.48,6.23-39.72,9.34-2.36.55-2.51.44-2.5-2,.01-4.29.04-8.59.06-12.88,0-5.4.01-10.79.02-16.19.01-1.83.02-3.66.03-5.48-.05-1.96-.12-3.92-.13-5.88-.01-3.32,1.06-4.45,4.45-4.76.74-.16,1.49-.32,2.23-.48,5.11-1.24,10.22-2.47,15.32-3.72,12-2.95,23.99-5.93,35.99-8.87,5.7-1.4,11.42-2.75,17.14-4.07,2.05-.47,3.08.15,3.6,1.97,0,4.29-.01,8.59-.02,12.88,0,5.39.02,10.78.03,16.16.01,3.31.09,6.63.02,9.94Z"/>
  <path class="cls-3" d="M168.65,55.34c-2.58.72-5.14,1.5-7.74,2.14-17.96,4.37-35.97,8.58-53.88,13.15-6.18,1.58-12.01,1.14-18.08-.4-11.57-2.93-23.23-5.49-34.85-8.22-.89-.21-1.75-.53-2.63-.8,2.68-1.32,5.37-2.63,8.05-3.96,5.61-2.78,10.67-6.4,15.38-10.47,5.62-4.86,9.97-10.83,14.3-16.82,2.4-3.32,5.4-5.83,9.82-5.91.39,0,.77-.3,1.15-.45,1.25.88,2.47,1.81,3.76,2.62,2.69,1.68,5.41,3.29,8.13,4.92.55.35,1.09.7,1.64,1.06.23.12.46.25.69.37,1.12.62,2.23,1.23,3.35,1.85h0c.33.25.62.6,1,.77,7.32,3.3,14.54,6.86,22.01,9.79,8.95,3.51,18.12,6.47,27.18,9.69.29.1.5.45.74.69ZM115.9,56.5c-.07,1.8,1.32,3.52,2.94,3.63,1.48.1,3.22-1.67,3.3-3.35.08-1.73-1.29-3.21-3.01-3.25-1.9-.05-3.16,1.11-3.23,2.97ZM99.89,59.68c.2-.3,1.16-1.12,1.03-1.68-.19-.83-1.07-1.92-1.83-2.08-1.16-.24-1.8.89-1.79,2.01,0,1.12.47,2.04,2.59,1.75ZM84.56,58.77c1.09.81,1.71,1.64,2.32,1.64.58,0,1.16-.89,1.73-1.38-.59-.68-1.08-1.53-1.82-1.95-.25-.14-1.12.82-2.24,1.69ZM100.51,42.13c-.74-.6-1.27-1.33-1.64-1.26-.5.1-1.16.8-1.2,1.29-.04.41.69,1.22,1.12,1.25.45.03.94-.67,1.72-1.29Z"/>
  <path class="cls-8" d="M100.17,23.59c-.38.16-.76.45-1.15.45-4.42.08-7.42,2.59-9.82,5.91-4.33,5.98-8.67,11.96-14.3,16.82-4.71,4.07-9.77,7.69-15.38,10.47-2.68,1.33-5.37,2.64-8.05,3.96-5.37-1.23-10.73-2.46-16.1-3.69-6.27-1.44-12.53-2.88-18.8-4.33-.59-.14-1.18-.3-1.87-.9,1.64-.44,3.29-.9,4.94-1.32,4.87-1.25,9.75-2.42,14.6-3.74,5.99-1.64,10.89-5,14.64-9.93,1.22-1.61,2.56-2.55,4.63-2.21.48.08.99-.07,1.47.02,4.55.84,7.37-1.53,10.09-4.82,3.06-3.71,6.34-7.34,10.01-10.42,5-4.2,10.98-6.61,17.51-7.47.75,1.44,1.36,2.99,2.29,4.31,1.66,2.37,3.51,4.6,5.29,6.9Z"/>
  <path class="cls-13" d="M12.88,81.05c-.04-4.41-.11-8.82-.1-13.23,0-1.27.89-1.93,2.08-1.84,1.58.12,3.17.35,4.71.71,19.49,4.61,38.98,9.26,58.47,13.89,3.87.92,7.76,1.82,11.62,2.77,1.86.46,3.01,1.58,3,3.63,0,.29,0,.57,0,.86-.09,3.94-.17,7.88-.26,11.82-5.88-1.44-11.75-2.9-17.64-4.3-5.17-1.23-10.36-2.4-15.54-3.59-.28-.11-.56-.25-.85-.32-11.26-2.67-22.52-5.37-33.8-7.99-3.87-.9-7.79-1.61-11.68-2.41Z"/>
  <path class="cls-18" d="M92.34,115.39c0,4.41-.05,8.83.02,13.24.03,1.6-.51,2.11-2.06,1.74-5.7-1.39-11.4-2.76-17.1-4.09-5.65-1.32-11.32-2.55-16.97-3.88-6.6-1.54-13.18-3.21-19.79-4.7-5.47-1.23-10.96-2.41-16.48-3.39-3.94-.7-7.06-3.95-7.14-8.03-.07-3.22-.01-6.44-.01-9.67,3.38.84,6.74,1.73,10.13,2.52,10.71,2.49,21.43,4.92,32.14,7.41,10.46,2.43,20.91,4.91,31.37,7.37,1.96.49,3.93.99,5.89,1.48Z"/>
  <path class="cls-14" d="M183.58,96.55c.01,3.31.09,6.63.02,9.94-.07,3.29-2.34,5.96-5.74,6.77-10.25,2.45-20.51,4.85-30.77,7.27-13.24,3.12-26.48,6.23-39.72,9.34-2.36.55-2.51.44-2.5-2,.01-4.29.04-8.59.06-12.88,1.95-.45,3.9-.89,5.85-1.34,5.24-1.19,10.49-2.34,15.71-3.59,11.42-2.71,22.82-5.49,34.24-8.19,7.61-1.81,15.24-3.54,22.86-5.31Z"/>
  <path class="cls-7" d="M183.58,96.55c-7.62,1.77-15.25,3.5-22.86,5.31-11.42,2.71-22.82,5.48-34.24,8.19-5.23,1.24-10.47,2.39-15.71,3.58-.43-4.05,3.69-5.56,4.87-8.72.04-.11.32-.15.5-.18,1.67-.3,1.74-1.44,1.49-2.77-.34-1.78-.66-3.57-.99-5.36,4.52-1.1,9.03-2.22,13.55-3.29,9.11-2.17,18.23-4.29,27.33-6.49,8.69-2.1,17.35-4.29,26.03-6.44,0,5.39.02,10.78.03,16.16Z"/>
  <path class="cls-12" d="M183.55,80.39c-8.67,2.15-17.34,4.34-26.03,6.44-9.1,2.2-18.22,4.32-27.33,6.49-4.52,1.08-9.03,2.19-13.55,3.29-.48.09-.96.19-1.44.28-3.42.63-6.84,1.27-10.26,1.9.01-1.83.02-3.66.03-5.48,1.03.05,1.36-.27,1.15-1.42-.15-.79.11-1.83.55-2.52,1.32-2.08,2.61-4.12,2.62-6.7.74-.16,1.49-.32,2.23-.48-.44.54-.87,1.08-1.49,1.84.66,0,1.02.06,1.36,0,4.72-1.02,9.46-1.98,14.15-3.12,8.36-2.02,16.7-4.14,25.04-6.24,3.95-1,7.88-2.09,11.84-3.07,5.54-1.36,11.08-2.72,16.66-3.94,1.44-.31,2.98-.11,4.48-.15,0,4.29-.01,8.59-.02,12.88Z"/>
  <path class="cls-16" d="M86.45,113.91c-10.46-2.46-20.91-4.93-31.37-7.37-10.71-2.49-21.43-4.92-32.14-7.41-3.39-.79-6.76-1.68-10.13-2.52.02-5.19.05-10.38.08-15.57,3.9.8,7.81,1.51,11.68,2.41,11.28,2.62,22.54,5.32,33.8,7.99.29.07.56.21.85.32.46.29,1.03.48,1.35.88.67.82,1.2,1.75,1.79,2.63-.91.32-1.79.72-2.72.96-.87.23-1.82.19-2.65.49-.25.09-.42,1.33-.31,1.38,1.44.68,2.93,1.26,4.42,1.82,1.03.39,2.08.75,3.13,1.1.45.15.94.41,1.38.35,1.53-.2,2.51.57,3.5,1.58.6.61,1.5,1.34,2.24,1.31,1.68-.06,2.78.63,3.79,1.8.29.34.73.55,1.13.83.23-.27.34-.42.47-.54.48-.43,1-1.21,1.43-1.16.49.05.87.88,1.37,1.3,1.61,1.39,3.25,2.75,4.89,4.09.16.13.51.03.71.14.97.55,1.92,1.13,2.97,1.76-.83.72-1.23,1.07-1.64,1.42Z"/>
  <g>
    <path class="cls-5" d="M100.17,23.59c-1.77-2.29-3.62-4.53-5.29-6.9-.93-1.32-1.53-2.86-2.29-4.31,12-2.1,22.02,2.04,30.72,9.96,3.32,3.03,6.27,6.47,9.39,9.72-1.07.16-2.16.25-3.2.5-.63.15-1.25.5-1.79.88-1.36.94-2.63,2-4.02,2.88-.33.21-1.28.08-1.47-.2-1.12-1.69-2.94-1.35-4.5-1.73,0,0,0,.01,0,0-.66-1.44-1.79-2.03-3.35-1.85-.23-.12-.46-.25-.69-.37-.55-.35-1.09-.7-1.64-1.06-2.71-1.64-5.44-3.25-8.13-4.92-1.29-.81-2.51-1.74-3.76-2.62Z"/>
    <path class="cls-6" d="M117.72,34.4c1.57.38,3.38.04,4.5,1.73.19.29,1.13.42,1.47.2,1.39-.88,2.66-1.94,4.02-2.88.54-.38,1.16-.72,1.79-.88,1.05-.26,2.13-.34,3.2-.5,2.61,2.52,5.83,2.94,9.21,2.56,2.69-.31,4.52.56,6.16,2.84,4.39,6.11,10.67,9.33,17.89,10.95,5.24,1.18,10.46,2.46,15.75,4.12-4.36.93-8.71,1.87-13.07,2.8-.24-.23-.45-.58-.74-.69-9.06-3.22-18.23-6.18-27.18-9.69-7.47-2.93-14.69-6.49-22.01-9.79-.37-.17-.67-.51-1-.78Z"/>
  </g>
  <path class="cls-11" d="M86.45,113.91c.4-.35.81-.7,1.64-1.42-1.05-.63-2-1.21-2.97-1.76-.2-.11-.54,0-.71-.14-1.65-1.35-3.28-2.71-4.89-4.09-.49-.42-.87-1.26-1.37-1.3-.44-.04-.96.74-1.43,1.16-.13.12-.24.27-.47.54-.4-.29-.84-.5-1.13-.83-1.01-1.17-2.11-1.86-3.79-1.8-.74.03-1.64-.7-2.24-1.31-.99-1.01-1.97-1.78-3.5-1.58-.44.06-.93-.2-1.38-.35-1.05-.35-2.1-.71-3.13-1.1-1.49-.57-2.98-1.15-4.42-1.82-.11-.05.06-1.28.31-1.38.83-.3,1.78-.27,2.65-.49.93-.24,1.82-.63,2.72-.96-.59-.88-1.13-1.81-1.79-2.63-.32-.4-.89-.59-1.35-.88,5.18,1.19,10.37,2.36,15.54,3.59,5.89,1.4,11.76,2.87,17.64,4.3-.02,5.25-.03,10.49-.05,15.74-1.96-.49-3.93-.99-5.89-1.48ZM74.92,96.41c0,.15.02.3.03.46.32-.06.63-.11.95-.17-.01-.1-.03-.19-.04-.29h-.93ZM70.42,95.24c-.03-.09-.06-.18-.11-.26,0-.02-.14,0-.14.02-.02.09-.02.18-.03.27.09-.01.18-.02.28-.04Z"/>
  <path class="cls-2" d="M104.94,98.79c3.42-.63,6.84-1.27,10.26-1.9.48-.09.96-.18,1.44-.28.33,1.79.65,3.57.99,5.36.25,1.33.18,2.47-1.49,2.77-.18.03-.46.07-.5.18-1.18,3.16-5.3,4.67-4.87,8.72-1.95.45-3.9.89-5.85,1.34,0-5.4.01-10.79.02-16.19Z"/>
  <path class="cls-10" d="M183.57,67.51c-1.5.04-3.04-.16-4.48.15-5.57,1.22-11.12,2.57-16.66,3.94-3.96.97-7.89,2.07-11.84,3.07-8.34,2.1-16.68,4.22-25.04,6.24-4.69,1.13-9.43,2.09-14.15,3.12-.34.07-.7,0-1.36,0,.62-.76,1.05-1.3,1.49-1.84,5.11-1.24,10.22-2.47,15.32-3.72,12-2.95,23.99-5.93,35.99-8.87,5.7-1.4,11.42-2.75,17.14-4.07,2.05-.47,3.08.15,3.6,1.97Z"/>
  <path class="cls-15" d="M109.29,82.67c0,2.57-1.29,4.62-2.62,6.7-.44.69-.7,1.73-.55,2.52.21,1.15-.12,1.47-1.15,1.42-.05-1.96-.12-3.92-.13-5.88-.01-3.32,1.06-4.45,4.45-4.76Z"/>
  <path class="cls-4" d="M95.3,144.44c-.51-.14-1.02-.28-1.53-.42.51.14,1.02.28,1.53.42Z"/>
  <path class="cls-11" d="M92.65,87.83c0-.29,0-.57,0-.86,0,.29,0,.57,0,.86Z"/>
  <path class="cls-17" d="M115.9,56.5c.07-1.87,1.33-3.02,3.23-2.97,1.72.04,3.09,1.53,3.01,3.25-.08,1.68-1.83,3.45-3.3,3.35-1.62-.11-3.01-1.83-2.94-3.63Z"/>
  <path class="cls-8" d="M99.89,59.68c-2.12.28-2.58-.63-2.59-1.75,0-1.12.63-2.26,1.79-2.01.76.16,1.64,1.26,1.83,2.08.13.56-.82,1.38-1.03,1.68Z"/>
  <path class="cls-1" d="M84.56,58.77c1.11-.87,1.98-1.83,2.24-1.69.74.41,1.23,1.27,1.82,1.95-.58.5-1.15,1.38-1.73,1.38-.61,0-1.24-.82-2.32-1.64Z"/>
  <path class="cls-1" d="M100.51,42.13c-.78.62-1.27,1.32-1.72,1.29-.43-.03-1.16-.84-1.12-1.25.04-.49.7-1.19,1.2-1.29.37-.08.9.66,1.64,1.26Z"/>
  <path class="cls-6" d="M114.39,32.56c1.56-.18,2.69.41,3.35,1.85-1.12-.62-2.23-1.23-3.35-1.85Z"/>
  <path class="cls-6" d="M112.05,31.13c.55.35,1.09.7,1.64,1.06-.55-.35-1.09-.7-1.64-1.06Z"/>
  <path class="cls-16" d="M74.92,96.41h.93c.01.1.03.19.04.29-.32.06-.63.11-.95.17,0-.15-.02-.3-.03-.46Z"/>
  <path class="cls-16" d="M70.42,95.24c-.09.01-.18.02-.28.04,0-.09,0-.19.03-.27,0-.02.13-.04.14-.02.05.08.07.17.11.26Z"/>
</svg>